<svg width="24" height="24" viewBox="0 0 24 24" fill="none" xmlns="http://www.w3.org/2000/svg">
<path d="M13 8C13 7.44772 12.5523 7 12 7V7C11.4477 7 11 7.44772 11 8V8C11 8.55228 11.4477 9 12 9V9C12.5523 9 13 8.55228 13 8V8ZM12 11C11.45 11 11 11.45 11 12V16C11 16.55 11.45 17 12 17C12.55 17 13 16.55 13 16V12C13 11.45 12.55 11 12 11ZM17 3.01L7 3C5.9 3 5 3.9 5 5V19C5 20.1 5.9 21 7 21H17C18.1 21 19 20.1 19 19V5C19 3.9 18.1 3.01 17 3.01ZM18 18C18 18.5523 17.5523 19 17 19H7C6.44772 19 6 18.5523 6 18V6C6 5.44772 6.44772 5 7 5H17C17.5523 5 18 5.44772 18 6V18Z" fill="#6C6C6C"/>
</svg>
