<svg width="20" height="20" viewBox="0 0 20 20" fill="none" xmlns="http://www.w3.org/2000/svg">
<path d="M14.3164 9.13672C14.6832 9.13672 14.9805 8.83941 14.9805 8.47266C14.9805 8.1059 14.6832 7.80859 14.3164 7.80859C13.9497 7.80859 13.6523 8.1059 13.6523 8.47266C13.6523 8.83941 13.9497 9.13672 14.3164 9.13672Z" fill="#6C6C6C"/>
<path d="M15.8438 2.82812H14.9805V2.16406C14.9805 1.7973 14.6832 1.5 14.3164 1.5C13.9496 1.5 13.6523 1.7973 13.6523 2.16406V2.82812H10.6309V2.16406C10.6309 1.7973 10.3336 1.5 9.9668 1.5C9.60004 1.5 9.30273 1.7973 9.30273 2.16406V2.82812H6.31445V2.16406C6.31445 1.7973 6.01715 1.5 5.65039 1.5C5.28363 1.5 4.98633 1.7973 4.98633 2.16406V2.82812H4.15625C2.69159 2.82812 1.5 4.01972 1.5 5.48438V15.8438C1.5 17.3084 2.69159 18.5 4.15625 18.5H9.23633C9.60309 18.5 9.90039 18.2027 9.90039 17.8359C9.90039 17.4692 9.60309 17.1719 9.23633 17.1719H4.15625C3.42392 17.1719 2.82812 16.5761 2.82812 15.8438V5.48438C2.82812 4.75205 3.42392 4.15625 4.15625 4.15625H4.98633V4.82031C4.98633 5.18707 5.28363 5.48438 5.65039 5.48438C6.01715 5.48438 6.31445 5.18707 6.31445 4.82031V4.15625H9.30273V4.82031C9.30273 5.18707 9.60004 5.48438 9.9668 5.48438C10.3336 5.48438 10.6309 5.18707 10.6309 4.82031V4.15625H13.6523V4.82031C13.6523 5.18707 13.9496 5.48438 14.3164 5.48438C14.6832 5.48438 14.9805 5.18707 14.9805 4.82031V4.15625H15.8438C16.5761 4.15625 17.1719 4.75205 17.1719 5.48438V9.26953C17.1719 9.63629 17.4692 9.93359 17.8359 9.93359C18.2027 9.93359 18.5 9.63629 18.5 9.26953V5.48438C18.5 4.01972 17.3084 2.82812 15.8438 2.82812Z" fill="#6C6C6C"/>
<path d="M14.4824 10.4648C12.2671 10.4648 10.4648 12.2671 10.4648 14.4824C10.4648 16.6977 12.2671 18.5 14.4824 18.5C16.6977 18.5 18.5 16.6977 18.5 14.4824C18.5 12.2671 16.6977 10.4648 14.4824 10.4648ZM14.4824 17.1719C12.9995 17.1719 11.793 15.9654 11.793 14.4824C11.793 12.9994 12.9995 11.793 14.4824 11.793C15.9654 11.793 17.1719 12.9994 17.1719 14.4824C17.1719 15.9654 15.9654 17.1719 14.4824 17.1719Z" fill="#6C6C6C"/>
<path d="M15.4453 13.8184H15.1465V13.1211C15.1465 12.7543 14.8492 12.457 14.4824 12.457C14.1157 12.457 13.8184 12.7543 13.8184 13.1211V14.4824C13.8184 14.8492 14.1157 15.1465 14.4824 15.1465H15.4453C15.8121 15.1465 16.1094 14.8492 16.1094 14.4824C16.1094 14.1157 15.8121 13.8184 15.4453 13.8184Z" fill="#6C6C6C"/>
<path d="M11.4277 9.13672C11.7945 9.13672 12.0918 8.83941 12.0918 8.47266C12.0918 8.1059 11.7945 7.80859 11.4277 7.80859C11.061 7.80859 10.7637 8.1059 10.7637 8.47266C10.7637 8.83941 11.061 9.13672 11.4277 9.13672Z" fill="#6C6C6C"/>
<path d="M8.53906 12.0254C8.90581 12.0254 9.20312 11.7281 9.20312 11.3613C9.20312 10.9946 8.90581 10.6973 8.53906 10.6973C8.17231 10.6973 7.875 10.9946 7.875 11.3613C7.875 11.7281 8.17231 12.0254 8.53906 12.0254Z" fill="#6C6C6C"/>
<path d="M5.65039 9.13672C6.01714 9.13672 6.31445 8.83941 6.31445 8.47266C6.31445 8.1059 6.01714 7.80859 5.65039 7.80859C5.28364 7.80859 4.98633 8.1059 4.98633 8.47266C4.98633 8.83941 5.28364 9.13672 5.65039 9.13672Z" fill="#6C6C6C"/>
<path d="M5.65039 12.0254C6.01714 12.0254 6.31445 11.7281 6.31445 11.3613C6.31445 10.9946 6.01714 10.6973 5.65039 10.6973C5.28364 10.6973 4.98633 10.9946 4.98633 11.3613C4.98633 11.7281 5.28364 12.0254 5.65039 12.0254Z" fill="#6C6C6C"/>
<path d="M5.65039 14.9141C6.01714 14.9141 6.31445 14.6168 6.31445 14.25C6.31445 13.8832 6.01714 13.5859 5.65039 13.5859C5.28364 13.5859 4.98633 13.8832 4.98633 14.25C4.98633 14.6168 5.28364 14.9141 5.65039 14.9141Z" fill="#6C6C6C"/>
<path d="M8.53906 14.9141C8.90581 14.9141 9.20312 14.6168 9.20312 14.25C9.20312 13.8832 8.90581 13.5859 8.53906 13.5859C8.17231 13.5859 7.875 13.8832 7.875 14.25C7.875 14.6168 8.17231 14.9141 8.53906 14.9141Z" fill="#6C6C6C"/>
<path d="M8.53906 9.13672C8.90581 9.13672 9.20312 8.83941 9.20312 8.47266C9.20312 8.1059 8.90581 7.80859 8.53906 7.80859C8.17231 7.80859 7.875 8.1059 7.875 8.47266C7.875 8.83941 8.17231 9.13672 8.53906 9.13672Z" fill="#6C6C6C"/>
</svg>
