<svg width="20" height="20" viewBox="0 0 20 20" fill="none" xmlns="http://www.w3.org/2000/svg">
<path d="M10 0C4.48578 0 0 4.48578 0 10C0 15.5142 4.48578 20 10 20C15.5142 20 20 15.5142 20 10C20 4.48578 15.5142 0 10 0Z" fill="#84BD3C"/>
<path fill-rule="evenodd" clip-rule="evenodd" d="M10.0195 2.89062C10.4726 2.89062 10.8398 3.25789 10.8398 3.71094V11.0732L13.003 8.82813C13.3174 8.50188 13.8367 8.49224 14.1629 8.80658C14.4892 9.12093 14.4988 9.64023 14.1845 9.96648L10.6102 13.676C10.4556 13.8365 10.2424 13.9272 10.0195 13.9272C9.79668 13.9272 9.58342 13.8365 9.4288 13.676L5.85459 9.96648C5.54024 9.64023 5.54989 9.12093 5.87614 8.80658C6.20239 8.49224 6.72169 8.50188 7.03604 8.82813L9.19921 11.0732V3.71094C9.19921 3.25789 9.56648 2.89062 10.0195 2.89062ZM5.625 15.7031C5.625 15.2501 5.99227 14.8828 6.44531 14.8828H13.5937C14.0468 14.8828 14.414 15.2501 14.414 15.7031C14.414 16.1562 14.0468 16.5234 13.5937 16.5234H6.44531C5.99227 16.5234 5.625 16.1562 5.625 15.7031Z" fill="white"/>
</svg>
