<svg width="17" height="17" viewBox="0 0 17 17" fill="none" xmlns="http://www.w3.org/2000/svg">
<path fill-rule="evenodd" clip-rule="evenodd" d="M0.319179 0.319179C0.74475 -0.106393 1.43474 -0.106393 1.86031 0.319179L8.5 6.95887L15.1397 0.319179C15.5653 -0.106393 16.2553 -0.106393 16.6808 0.319179C17.1064 0.74475 17.1064 1.43474 16.6808 1.86031L10.0411 8.5L16.6808 15.1397C17.1064 15.5653 17.1064 16.2553 16.6808 16.6808C16.2553 17.1064 15.5653 17.1064 15.1397 16.6808L8.5 10.0411L1.86031 16.6808C1.43474 17.1064 0.74475 17.1064 0.319179 16.6808C-0.106393 16.2553 -0.106393 15.5653 0.319179 15.1397L6.95887 8.5L0.319179 1.86031C-0.106393 1.43474 -0.106393 0.74475 0.319179 0.319179Z" fill="#6C6C6C"/>
</svg>
