<svg width="28" height="28" viewBox="0 0 28 28" fill="none" xmlns="http://www.w3.org/2000/svg">
<path d="M19.25 8H16.5V7.5C16.5 6.67156 15.8284 6 15 6H13C12.1716 6 11.5 6.67156 11.5 7.5V8H8.75C8.05966 8 7.5 8.55966 7.5 9.25V10.25C7.5 10.5262 7.72384 10.75 8 10.75H20C20.2762 10.75 20.5 10.5262 20.5 10.25V9.25C20.5 8.55966 19.9403 8 19.25 8ZM12.5 7.5C12.5 7.22438 12.7244 7 13 7H15C15.2756 7 15.5 7.22438 15.5 7.5V8H12.5V7.5Z" fill="#EE3A43"/>
<path d="M8.44885 11.75C8.35963 11.75 8.28853 11.8246 8.29278 11.9137L8.70528 20.5712C8.74341 21.3725 9.40153 22 10.2034 22H17.7965C18.5984 22 19.2565 21.3725 19.2947 20.5712L19.7072 11.9137C19.7114 11.8246 19.6403 11.75 19.5511 11.75H8.44885ZM16 13C16 12.7237 16.2237 12.5 16.5 12.5C16.7762 12.5 17 12.7237 17 13V19.5C17 19.7762 16.7762 20 16.5 20C16.2237 20 16 19.7762 16 19.5V13ZM13.5 13C13.5 12.7237 13.7237 12.5 14 12.5C14.2762 12.5 14.5 12.7237 14.5 13V19.5C14.5 19.7762 14.2762 20 14 20C13.7237 20 13.5 19.7762 13.5 19.5V13ZM11 13C11 12.7237 11.2237 12.5 11.5 12.5C11.7762 12.5 12 12.7237 12 13V19.5C12 19.7762 11.7762 20 11.5 20C11.2237 20 11 19.7762 11 19.5V13Z" fill="#EE3A43"/>
</svg>
