<svg width="20" height="20" viewBox="0 0 20 20" fill="none" xmlns="http://www.w3.org/2000/svg">
<g clip-path="url(#clip0)">
<path d="M16.9062 3.625H3.09376C2.21491 3.625 1.5 4.33991 1.5 5.21876V14.7813C1.5 15.6601 2.21491 16.375 3.09376 16.375H16.9062C17.7851 16.375 18.5 15.6601 18.5 14.7813V5.21876C18.5 4.33991 17.7851 3.625 16.9062 3.625V3.625ZM16.9062 4.6875C16.9784 4.6875 17.0471 4.70247 17.1099 4.72862L10 10.8908L2.89011 4.72862C2.95288 4.70251 3.02155 4.6875 3.09373 4.6875H16.9062ZM16.9062 15.3125H3.09376C2.80064 15.3125 2.5625 15.0744 2.5625 14.7812V5.85116L9.65188 11.9953C9.75202 12.0819 9.87601 12.125 10 12.125C10.124 12.125 10.248 12.082 10.3481 11.9953L17.4375 5.85116V14.7813C17.4375 15.0744 17.1994 15.3125 16.9062 15.3125V15.3125Z" fill="#585858"/>
</g>
<defs>
<clipPath id="clip0">
<rect width="17" height="17" fill="white" transform="translate(1.5 1.5)"/>
</clipPath>
</defs>
</svg>
