<svg width="30" height="26" viewBox="0 0 30 26" fill="none" xmlns="http://www.w3.org/2000/svg">
<rect width="26" height="26" rx="4" fill="url(#paint0_linear)"/>
<path d="M19.0104 15.9896C18.0846 15.0638 16.9827 14.3785 15.7804 13.9636C17.0681 13.0767 17.9141 11.5924 17.9141 9.91406C17.9141 7.20445 15.7096 5 13 5C10.2904 5 8.08594 7.20445 8.08594 9.91406C8.08594 11.5924 8.93192 13.0767 10.2196 13.9636C9.01735 14.3785 7.91541 15.0638 6.9896 15.9896C5.38417 17.595 4.5 19.7296 4.5 22H5.82812C5.82812 18.0454 9.04541 14.8281 13 14.8281C16.9546 14.8281 20.1719 18.0454 20.1719 22H21.5C21.5 19.7296 20.6158 17.595 19.0104 15.9896ZM13 13.5C11.0227 13.5 9.41406 11.8914 9.41406 9.91406C9.41406 7.93675 11.0227 6.32812 13 6.32812C14.9773 6.32812 16.5859 7.93675 16.5859 9.91406C16.5859 11.8914 14.9773 13.5 13 13.5Z" fill="#FAFFFA"/>
<circle cx="26" cy="13" r="4" fill="#EE3A43"/>
<path d="M28 12.5L25.9104 14.5L24 12.5" stroke="#EAEDEA" stroke-linecap="round" stroke-linejoin="round"/>
<defs>
<linearGradient id="paint0_linear" x1="13" y1="0" x2="13" y2="26" gradientUnits="userSpaceOnUse">
<stop stop-color="#EE3A43"/>
<stop offset="1" stop-color="#7C0E14"/>
</linearGradient>
</defs>
</svg>
