<svg width="24" height="24" viewBox="0 0 24 24" fill="none" xmlns="http://www.w3.org/2000/svg">
<path d="M12 9.81819C10.7964 9.81819 9.8182 10.7964 9.8182 12C9.8182 13.2036 10.7964 14.1818 12 14.1818C13.2036 14.1818 14.1818 13.2036 14.1818 12C14.1818 10.7964 13.2036 9.81819 12 9.81819Z" fill="#6C6C6C"/>
<path d="M12 6.54546C8.36363 6.54546 5.25819 8.80726 4 12C5.25819 15.1927 8.36363 17.4545 12 17.4545C15.64 17.4545 18.7418 15.1927 20 12C18.7418 8.80726 15.64 6.54546 12 6.54546ZM12 15.6363C9.99273 15.6363 8.36363 14.0072 8.36363 12C8.36363 9.9927 9.99273 8.36363 12 8.36363C14.0073 8.36363 15.6364 9.99273 15.6364 12C15.6364 14.0073 14.0073 15.6363 12 15.6363Z" fill="#6C6C6C"/>
</svg>
